<svg width="24" height="24" fill="none" xmlns="http://www.w3.org/2000/svg"><path d="m5.766 16.785.45-.599-.45.6ZM3.02 10.252l-.73.175.73-.175Zm2.565 6.391.477-.578-.477.578Zm16.433-5.9-.73-.175.73.175Zm-2.13 5.615-.525-.536.526.536Zm-.849.67-.398-.636.398.635Zm2.902-10.272.515-.545-.515.545Zm.362.459-.65.373.65-.373ZM1.728 1.818a.75.75 0 0 0-1.456.364l1.456-.364ZM16 14.75a.75.75 0 0 0 0-1.5v1.5Zm-6-1.5a.75.75 0 0 0 0 1.5v-1.5ZM2.053 6.96h16.392v-1.5H2.053v1.5Zm11.03 10.08h-.504v1.5h.505v-1.5Zm-9.332-6.963-.969-4.041-1.459.35.969 4.04 1.459-.35Zm8.828 6.963c-1.844 0-3.162-.002-4.19-.121-1.007-.117-1.651-.34-2.173-.733l-.901 1.199c.813.612 1.75.89 2.902 1.024 1.133.132 2.553.13 4.362.13v-1.5ZM2.292 10.427c.421 1.758.751 3.14 1.143 4.211.4 1.09.888 1.935 1.673 2.584l.955-1.157c-.503-.415-.87-.99-1.219-1.942-.355-.971-.664-2.253-1.093-4.046l-1.46.35Zm3.924 5.759a4.293 4.293 0 0 1-.153-.12l-.955 1.156c.068.055.137.11.207.163l.901-1.199Zm15.074-5.618c-.372 1.55-.639 2.66-.935 3.51-.292.835-.592 1.352-.99 1.744l1.05 1.07c.626-.613 1.023-1.367 1.356-2.32.327-.938.613-2.133.977-3.655l-1.458-.35Zm-8.206 7.972c1.564 0 2.793 0 3.782-.1 1.003-.101 1.83-.312 2.572-.777l-.796-1.271c-.474.297-1.047.467-1.927.556-.896.09-2.036.091-3.631.091v1.5Zm6.28-2.718c-.22.216-.461.407-.722.57l.796 1.271c.353-.22.68-.479.977-.77l-1.05-1.07Zm-.92-8.861c.993 0 1.669 0 2.172.062.49.06.691.165.811.278l1.03-1.09c-.458-.432-1.033-.6-1.66-.677-.614-.075-1.399-.073-2.352-.073v1.5Zm4.304 3.956c.223-.927.407-1.69.477-2.304.072-.628.042-1.226-.27-1.772l-1.302.747c.083.143.138.363.082.854-.058.503-.214 1.16-.445 2.126l1.458.35Zm-1.32-3.616c.088.084.164.181.225.287l1.301-.747a2.748 2.748 0 0 0-.497-.63l-1.03 1.09ZM2.78 6.03 1.728 1.82l-1.456.363 1.053 4.21L2.78 6.03ZM16 13.25h-6v1.5h6v-1.5Zm-5.526 7.697a1.053 1.053 0 1 1-2.106 0 1.053 1.053 0 0 1 2.106 0Zm6.316 0a1.053 1.053 0 1 1-2.106 0 1.053 1.053 0 0 1 2.106 0Z" fill="#2D264B"/></svg>