<svg width="24" height="24" fill="none" xmlns="http://www.w3.org/2000/svg"><path fill-rule="evenodd" clip-rule="evenodd" d="M1.728 1.818a.75.75 0 1 0-1.456.364L1.324 6.39l.979 4.084c.416 1.737.744 3.103 1.132 4.165.4 1.09.888 1.935 1.673 2.584.067.056.136.11.207.163.813.612 1.75.89 2.902 1.024 1.123.13 2.528.13 4.314.13h.594c1.545 0 2.76 0 3.74-.098 1.004-.102 1.83-.313 2.573-.778.353-.22.68-.479.977-.77.626-.614 1.023-1.368 1.355-2.32.325-.93.609-2.113.969-3.616l.02-.087c.218-.906.397-1.652.466-2.257.072-.628.042-1.226-.27-1.772a2.754 2.754 0 0 0-.498-.63c-.458-.432-1.033-.6-1.66-.677-.604-.073-1.372-.073-2.303-.073H2.638l-.91-3.643ZM9.25 14a.75.75 0 0 1 .75-.75h6a.75.75 0 1 1 0 1.5h-6a.75.75 0 0 1-.75-.75Z" fill="#217CF3"/><path d="M9.421 22a1.053 1.053 0 1 0 0-2.105 1.053 1.053 0 0 0 0 2.105Zm6.316 0a1.053 1.053 0 1 0 0-2.105 1.053 1.053 0 0 0 0 2.105Z" fill="#217CF3"/></svg>